<mxfile host="app.diagrams.net" agent="Mozilla/5.0 (Windows NT 10.0; Win64; x64) AppleWebKit/537.36 (KHTML, like Gecko) Chrome/134.0.0.0 Safari/537.36 Edg/134.0.0.0" version="26.1.0">
  <diagram name="Page-1" id="TnTkqLK4D787zhgPgj7M">
    <mxGraphModel dx="1386" dy="818" grid="1" gridSize="10" guides="1" tooltips="1" connect="1" arrows="1" fold="1" page="1" pageScale="1" pageWidth="850" pageHeight="1100" math="0" shadow="0">
      <root>
        <mxCell id="0" />
        <mxCell id="1" parent="0" />
        <mxCell id="jXCPzEjXWv0N1-g7OhZ0-1" value="" style="rounded=0;whiteSpace=wrap;html=1;" vertex="1" parent="1">
          <mxGeometry x="230" y="30" width="410" height="610" as="geometry" />
        </mxCell>
        <mxCell id="jXCPzEjXWv0N1-g7OhZ0-2" value="Admin" style="shape=umlActor;verticalLabelPosition=bottom;verticalAlign=top;html=1;outlineConnect=0;" vertex="1" parent="1">
          <mxGeometry x="90" y="270" width="50" height="90" as="geometry" />
        </mxCell>
        <mxCell id="jXCPzEjXWv0N1-g7OhZ0-4" value="Student" style="shape=umlActor;verticalLabelPosition=bottom;verticalAlign=top;html=1;outlineConnect=0;" vertex="1" parent="1">
          <mxGeometry x="740" y="170" width="50" height="90" as="geometry" />
        </mxCell>
        <mxCell id="jXCPzEjXWv0N1-g7OhZ0-5" value="Faculty" style="shape=umlActor;verticalLabelPosition=bottom;verticalAlign=top;html=1;outlineConnect=0;" vertex="1" parent="1">
          <mxGeometry x="760" y="480" width="50" height="90" as="geometry" />
        </mxCell>
        <mxCell id="jXCPzEjXWv0N1-g7OhZ0-7" value="Manage users" style="ellipse;whiteSpace=wrap;html=1;" vertex="1" parent="1">
          <mxGeometry x="280" y="150" width="100" height="70" as="geometry" />
        </mxCell>
        <mxCell id="jXCPzEjXWv0N1-g7OhZ0-8" value="Manage courses" style="ellipse;whiteSpace=wrap;html=1;" vertex="1" parent="1">
          <mxGeometry x="280" y="280" width="100" height="70" as="geometry" />
        </mxCell>
        <mxCell id="jXCPzEjXWv0N1-g7OhZ0-9" value="Generate reports" style="ellipse;whiteSpace=wrap;html=1;" vertex="1" parent="1">
          <mxGeometry x="280" y="410" width="100" height="70" as="geometry" />
        </mxCell>
        <mxCell id="jXCPzEjXWv0N1-g7OhZ0-12" value="" style="endArrow=classic;html=1;rounded=0;exitX=0.5;exitY=0.5;exitDx=0;exitDy=0;exitPerimeter=0;entryX=0;entryY=0.5;entryDx=0;entryDy=0;" edge="1" parent="1" source="jXCPzEjXWv0N1-g7OhZ0-2" target="jXCPzEjXWv0N1-g7OhZ0-8">
          <mxGeometry width="50" height="50" relative="1" as="geometry">
            <mxPoint x="400" y="450" as="sourcePoint" />
            <mxPoint x="450" y="400" as="targetPoint" />
          </mxGeometry>
        </mxCell>
        <mxCell id="jXCPzEjXWv0N1-g7OhZ0-14" value="" style="endArrow=classic;html=1;rounded=0;exitX=0.5;exitY=0.5;exitDx=0;exitDy=0;exitPerimeter=0;entryX=0;entryY=0.5;entryDx=0;entryDy=0;" edge="1" parent="1" source="jXCPzEjXWv0N1-g7OhZ0-2" target="jXCPzEjXWv0N1-g7OhZ0-7">
          <mxGeometry width="50" height="50" relative="1" as="geometry">
            <mxPoint x="400" y="450" as="sourcePoint" />
            <mxPoint x="450" y="400" as="targetPoint" />
          </mxGeometry>
        </mxCell>
        <mxCell id="jXCPzEjXWv0N1-g7OhZ0-15" value="" style="endArrow=classic;html=1;rounded=0;exitX=0.5;exitY=0.5;exitDx=0;exitDy=0;exitPerimeter=0;entryX=0;entryY=0.5;entryDx=0;entryDy=0;" edge="1" parent="1" source="jXCPzEjXWv0N1-g7OhZ0-2" target="jXCPzEjXWv0N1-g7OhZ0-9">
          <mxGeometry width="50" height="50" relative="1" as="geometry">
            <mxPoint x="400" y="450" as="sourcePoint" />
            <mxPoint x="450" y="400" as="targetPoint" />
          </mxGeometry>
        </mxCell>
        <mxCell id="jXCPzEjXWv0N1-g7OhZ0-16" value="Register courses" style="ellipse;whiteSpace=wrap;html=1;" vertex="1" parent="1">
          <mxGeometry x="480" y="50" width="100" height="70" as="geometry" />
        </mxCell>
        <mxCell id="jXCPzEjXWv0N1-g7OhZ0-17" value="View courses" style="ellipse;whiteSpace=wrap;html=1;" vertex="1" parent="1">
          <mxGeometry x="480" y="150" width="100" height="70" as="geometry" />
        </mxCell>
        <mxCell id="jXCPzEjXWv0N1-g7OhZ0-18" value="View grades" style="ellipse;whiteSpace=wrap;html=1;" vertex="1" parent="1">
          <mxGeometry x="480" y="240" width="100" height="70" as="geometry" />
        </mxCell>
        <mxCell id="jXCPzEjXWv0N1-g7OhZ0-19" value="Submit assignments" style="ellipse;whiteSpace=wrap;html=1;" vertex="1" parent="1">
          <mxGeometry x="480" y="330" width="100" height="70" as="geometry" />
        </mxCell>
        <mxCell id="jXCPzEjXWv0N1-g7OhZ0-20" value="Assign grades" style="ellipse;whiteSpace=wrap;html=1;" vertex="1" parent="1">
          <mxGeometry x="480" y="530" width="100" height="70" as="geometry" />
        </mxCell>
        <mxCell id="jXCPzEjXWv0N1-g7OhZ0-21" value="Manage courses info" style="ellipse;whiteSpace=wrap;html=1;" vertex="1" parent="1">
          <mxGeometry x="480" y="430" width="100" height="70" as="geometry" />
        </mxCell>
        <mxCell id="jXCPzEjXWv0N1-g7OhZ0-23" value="" style="endArrow=classic;html=1;rounded=0;exitX=0.5;exitY=0.5;exitDx=0;exitDy=0;exitPerimeter=0;entryX=1;entryY=0.5;entryDx=0;entryDy=0;" edge="1" parent="1" source="jXCPzEjXWv0N1-g7OhZ0-4" target="jXCPzEjXWv0N1-g7OhZ0-16">
          <mxGeometry width="50" height="50" relative="1" as="geometry">
            <mxPoint x="400" y="450" as="sourcePoint" />
            <mxPoint x="450" y="400" as="targetPoint" />
          </mxGeometry>
        </mxCell>
        <mxCell id="jXCPzEjXWv0N1-g7OhZ0-24" value="" style="endArrow=classic;html=1;rounded=0;exitX=0.5;exitY=0.5;exitDx=0;exitDy=0;exitPerimeter=0;entryX=1;entryY=0.5;entryDx=0;entryDy=0;" edge="1" parent="1" source="jXCPzEjXWv0N1-g7OhZ0-4" target="jXCPzEjXWv0N1-g7OhZ0-17">
          <mxGeometry width="50" height="50" relative="1" as="geometry">
            <mxPoint x="400" y="450" as="sourcePoint" />
            <mxPoint x="450" y="400" as="targetPoint" />
          </mxGeometry>
        </mxCell>
        <mxCell id="jXCPzEjXWv0N1-g7OhZ0-25" value="" style="endArrow=classic;html=1;rounded=0;exitX=0.5;exitY=0.5;exitDx=0;exitDy=0;exitPerimeter=0;entryX=1;entryY=0.5;entryDx=0;entryDy=0;" edge="1" parent="1" source="jXCPzEjXWv0N1-g7OhZ0-4" target="jXCPzEjXWv0N1-g7OhZ0-18">
          <mxGeometry width="50" height="50" relative="1" as="geometry">
            <mxPoint x="400" y="450" as="sourcePoint" />
            <mxPoint x="450" y="400" as="targetPoint" />
          </mxGeometry>
        </mxCell>
        <mxCell id="jXCPzEjXWv0N1-g7OhZ0-26" value="" style="endArrow=classic;html=1;rounded=0;exitX=0.5;exitY=0.5;exitDx=0;exitDy=0;exitPerimeter=0;entryX=1;entryY=0.5;entryDx=0;entryDy=0;" edge="1" parent="1" source="jXCPzEjXWv0N1-g7OhZ0-4" target="jXCPzEjXWv0N1-g7OhZ0-19">
          <mxGeometry width="50" height="50" relative="1" as="geometry">
            <mxPoint x="400" y="450" as="sourcePoint" />
            <mxPoint x="450" y="400" as="targetPoint" />
          </mxGeometry>
        </mxCell>
        <mxCell id="jXCPzEjXWv0N1-g7OhZ0-27" value="" style="endArrow=classic;html=1;rounded=0;exitX=0.5;exitY=0.5;exitDx=0;exitDy=0;exitPerimeter=0;entryX=1;entryY=0.5;entryDx=0;entryDy=0;" edge="1" parent="1" source="jXCPzEjXWv0N1-g7OhZ0-5" target="jXCPzEjXWv0N1-g7OhZ0-21">
          <mxGeometry width="50" height="50" relative="1" as="geometry">
            <mxPoint x="400" y="450" as="sourcePoint" />
            <mxPoint x="450" y="400" as="targetPoint" />
          </mxGeometry>
        </mxCell>
        <mxCell id="jXCPzEjXWv0N1-g7OhZ0-28" value="" style="endArrow=classic;html=1;rounded=0;exitX=0.5;exitY=0.5;exitDx=0;exitDy=0;exitPerimeter=0;entryX=1;entryY=0.5;entryDx=0;entryDy=0;" edge="1" parent="1" source="jXCPzEjXWv0N1-g7OhZ0-5" target="jXCPzEjXWv0N1-g7OhZ0-20">
          <mxGeometry width="50" height="50" relative="1" as="geometry">
            <mxPoint x="400" y="450" as="sourcePoint" />
            <mxPoint x="450" y="400" as="targetPoint" />
          </mxGeometry>
        </mxCell>
      </root>
    </mxGraphModel>
  </diagram>
</mxfile>
